<?xml version="1.0" encoding="UTF-8" standalone="no"?>
<!-- Created with Inkscape (http://www.inkscape.org/) -->

<svg
   width="3150"
   height="1000.0001"
   viewBox="0 0 833.43747 264.58333"
   version="1.1"
   id="svg1"
   xml:space="preserve"
   sodipodi:docname="better-calauan-logo.svg"
   inkscape:version="1.4.3 (0d15f75042, 2025-12-25)"
   xmlns:inkscape="http://www.inkscape.org/namespaces/inkscape"
   xmlns:sodipodi="http://sodipodi.sourceforge.net/DTD/sodipodi-0.dtd"
   xmlns:xlink="http://www.w3.org/1999/xlink"
   xmlns="http://www.w3.org/2000/svg"
   xmlns:svg="http://www.w3.org/2000/svg"><sodipodi:namedview
     id="namedview1"
     pagecolor="#ffffff"
     bordercolor="#000000"
     borderopacity="0.25"
     inkscape:showpageshadow="2"
     inkscape:pageopacity="0.0"
     inkscape:pagecheckerboard="0"
     inkscape:deskcolor="#d1d1d1"
     inkscape:document-units="mm"
     inkscape:zoom="0.20774999"
     inkscape:cx="1261.1312"
     inkscape:cy="811.07104"
     inkscape:window-width="2048"
     inkscape:window-height="1039"
     inkscape:window-x="0"
     inkscape:window-y="0"
     inkscape:window-maximized="1"
     inkscape:current-layer="svg1" /><defs
     id="defs1"><linearGradient
       id="linearGradient41"
       inkscape:collect="always"><stop
         style="stop-color:#000000;stop-opacity:1;"
         offset="0"
         id="stop41" /><stop
         style="stop-color:#000000;stop-opacity:0;"
         offset="1"
         id="stop42" /></linearGradient><rect
       x="2998.7966"
       y="86.642601"
       width="953.0686"
       height="861.61255"
       id="rect28" /><rect
       x="1025.2708"
       y="62.575214"
       width="109.20186"
       height="32.550888"
       id="rect3" /><rect
       x="1000.671"
       y="95.302002"
       width="1422.7227"
       height="786.24152"
       id="rect2" /><rect
       x="1000.671"
       y="112.32021"
       width="1483.9883"
       height="741.99414"
       id="rect1" /><linearGradient
       inkscape:collect="always"
       xlink:href="#linearGradient41"
       id="linearGradient42"
       x1="1027.1801"
       y1="75.695061"
       x2="1103.2181"
       y2="75.695061"
       gradientUnits="userSpaceOnUse" /><rect
       x="1025.2708"
       y="62.575214"
       width="109.20186"
       height="32.550888"
       id="rect4" /></defs><g
     id="layer1"
     transform="translate(27.252089,-16.404161)"><path
       style="display:inline;opacity:1;fill:#f2c91d;fill-opacity:1;stroke:#e1b100;stroke-width:1.47024;stroke-dasharray:none;stroke-opacity:1"
       d="m 529.79487,967.92722 c -1.2338,-1.75511 -2.95427,-5.84026 -3.82324,-9.07813 -1.28664,-4.7941 -26.05088,-59.16078 -30.46827,-66.88913 -2.01305,-3.52192 -7.35249,-4.11041 -34.95464,-3.85263 l -26.38067,0.24638 -9.56642,4.66357 c -9.70485,4.73103 -21.63141,8.17904 -34.10875,9.8609 -4.38136,0.59059 -8.86597,2.5048 -12.34436,5.26908 -5.46116,4.33997 -11.43837,5.64409 -13.15301,2.86976 -1.75948,-2.84689 -5.62168,-1.41292 -11.98006,4.44803 -3.53222,3.25589 -8.15455,6.7091 -10.27183,7.67379 -3.36168,1.53169 -4.17483,1.3524 -6.41539,-1.41457 -1.41116,-1.74272 -5.3307,-11.32212 -8.71008,-21.28754 -7.13527,-21.04117 -33.27703,-74.68082 -39.95396,-81.9806 -6.0766,-6.64343 -7.24824,-5.2344 -12.99989,15.63379 -7.89774,28.65463 -10.7301,32.30634 -33.34556,42.99163 -14.00659,6.61779 -19.77319,7.59625 -44.86244,7.61205 -26.41063,0.0166 -26.66729,-0.0522 -50.03765,-13.42606 -12.03509,-6.88716 -13.48096,-7.34671 -23.11412,-7.34671 -5.65177,0 -12.41497,0.74566 -15.02933,1.65703 -6.96601,2.42837 -10.03531,0.20402 -27.959575,-20.26255 C 62.649726,825.14376 61.226394,822.0909 57.42608,796.22004 56.177555,787.72065 54.548654,776.62863 53.806297,771.5711 52.794509,764.678 50.495722,758.97807 44.62523,748.80626 l -7.831328,-13.56934 0.49853,-13.29318 c 0.274192,-7.31124 0.577686,-22.56525 0.674432,-33.89777 0.163082,-19.10291 -0.103161,-21.26534 -3.653162,-29.67087 -5.252858,-12.43748 -16.437365,-29.4586 -24.072841,-36.63521 l -6.3454205,-5.96408 1.73167,-13.16875 1.73167,-13.16875 61.0778775,-1.68254 c 78.923302,-2.17414 94.128252,-4.73956 148.647362,-25.08019 18.38817,-6.86046 38.38586,-12.73045 69.90842,-20.52045 47.54396,-11.74928 49.27864,-12.16463 49.35325,-11.81721 0.0272,0.12658 0.65494,17.78084 1.39505,39.23169 1.99292,57.76251 6.49723,86.24101 18.58212,117.4855 7.00615,18.11379 16.66342,32.22207 32.49333,47.46942 19.7875,19.05929 33.28667,27.25917 56.41511,34.26857 19.8773,6.02409 31.68869,7.23352 62.50426,6.40017 36.90908,-0.99816 52.01933,-4.87903 77.88156,-20.00292 13.81913,-8.08123 36.03059,-29.49812 43.30918,-41.75984 18.17455,-30.61745 24.8596,-66.67768 26.32867,-142.02121 0.62361,-31.98258 1.23776,-41.57711 2.66137,-41.57711 2.89111,0 39.07348,8.35058 61.03651,14.08669 10.92779,2.85403 38.74398,11.41508 61.81376,19.02456 68.2645,22.5168 68.46939,22.55053 147.54035,24.29254 32.17452,0.70884 59.0937,1.65627 59.82042,2.10541 0.72671,0.44913 2.15564,6.42463 3.17538,13.27888 l 1.85409,12.46227 -8.09066,9.25423 c -18.36236,21.00319 -24.61216,33.31694 -25.61249,50.4634 -1.09398,18.75195 -3.56787,68.50976 -5.78071,116.26873 -2.58222,55.73054 -4.04532,74.22656 -8.90622,112.58934 -6.42117,50.67668 -4.97586,44.82108 -11.19069,45.33851 -12.12819,1.00974 -60.99035,-23.60084 -92.14272,-46.40986 l -10.71342,-7.84411 -30.49575,10.17758 c -16.77267,5.59768 -38.49856,13.89541 -48.27975,18.43942 -15.50393,7.20259 -18.94094,8.26183 -26.80777,8.26183 -11.324,0 -12.8662,2.09145 -11.48476,15.57505 0.84334,8.23145 0.58573,9.62936 -2.41799,13.12139 -2.21928,2.58006 -6.60601,4.81103 -12.90698,6.56409 l -9.54509,2.65567 -14.617,-7.45789 c -8.03936,-4.10184 -17.07135,-9.98691 -20.0711,-13.07795 -5.34615,-5.50886 -14.83598,-10.02158 -21.0744,-10.02158 -4.55688,0 -21.50469,16.91648 -21.50469,21.46494 0,5.80639 -4.90057,9.43044 -12.87787,9.5234 -3.84496,0.0448 -20.4026,0.32179 -36.79474,0.61553 -29.20076,0.52327 -29.8493,0.46949 -32.04718,-2.65704 z"
       id="path134"
       transform="matrix(0.26458333,0,0,0.26458333,-27.252089,16.404161)" /><g
       id="g140"
       transform="translate(-275.23106,-0.40970474)"
       style="fill:#0032a0;fill-opacity:1"><path
         style="fill:#0032a0;fill-opacity:1;stroke-width:1.75663"
         d="m 1079.8988,690.74933 c 0.094,-28.88623 -7.6469,-47.80895 -27.3904,-66.95723 -8.546,-8.28839 -8.2256,-6.71036 -5.4775,-26.97537 l 1.1315,-8.34401 45.9469,-0.0174 c 86.2713,-0.0326 110.1241,-3.66958 163.6413,-24.95133 24.8917,-9.89842 28.9038,-11.15612 63.7156,-19.97338 22.7309,-5.75734 55.7356,-13.4682 55.7356,-13.02145 0,77.35565 2.5253,104.94079 13.0337,142.37321 6.5461,23.3179 6.0544,24.71697 -10.5674,30.07038 l -12.652,4.07485 -12.4735,-13.8609 c -6.8604,-7.62349 -17.3755,-19.08149 -23.3668,-25.46223 l -10.8933,-11.60134 -18.0912,-0.41514 c -9.9501,-0.22834 -27.9491,-0.90961 -39.9977,-1.51395 -23.3006,-1.16872 -47.1635,1.03239 -62.4119,5.75685 -10.3913,3.21957 -42.7041,16.59455 -52.6991,21.81328 -44.8173,23.40082 -45.8265,23.84687 -56.4729,24.95964 l -10.7664,1.1253 z"
         id="path8"
         transform="matrix(0.26458333,0,0,0.26458333,-27.252089,16.404161)" /><path
         style="fill:#0032a0;fill-opacity:1;stroke-width:1.75663"
         d="m 1208.5649,873.40606 c -3.8646,-1.83054 -11.6124,-6.2675 -17.2174,-9.85989 -13.4124,-8.59641 -25.9789,-11.26668 -39.4341,-8.37934 l -10.1007,2.16748 -6.1482,-7.41962 c -3.3815,-4.08081 -10.2402,-12.04202 -15.2415,-17.69158 -10.382,-11.72769 -11.6792,-15.90614 -15.5315,-50.02913 -2.5062,-22.19903 -3.3317,-24.78387 -11.5275,-36.09795 -4.2284,-5.83715 -8.6419,-19.41695 -8.6419,-26.59023 0,-1.51343 3.5706,-2.67145 10.4563,-3.39114 8.1713,-0.85407 14.2838,-3.212 27.9712,-10.79005 9.6332,-5.33344 18.2596,-9.69716 19.1696,-9.69716 0.9101,0 3.6142,-1.54135 6.0092,-3.42522 2.3949,-1.88388 9.5064,-5.36444 15.8034,-7.73459 6.2969,-2.37015 17.1301,-6.80288 24.0738,-9.8505 23.1043,-10.14053 50.3236,-12.76688 103.7994,-10.01542 11.1107,0.57168 21.1697,1.0672 22.3532,1.10117 1.1836,0.034 6.717,4.97217 12.2965,10.97377 5.5795,6.0016 15.2212,16.28461 21.4261,22.85113 l 11.2815,11.93914 -8.3661,26.7738 c -4.6013,14.72559 -10.2948,30.1172 -12.652,34.20359 -2.3573,4.08638 -5.1284,11.98736 -6.1582,17.55774 -2.6078,14.10675 -4.0927,16.39183 -9.9136,15.25517 -8.0513,-1.57219 -11.0224,2.39971 -14.6655,19.60539 -1.8269,8.62797 -5.4919,20.03489 -8.1443,25.34871 -4.501,9.01711 -5.8335,10.17489 -19.9785,17.35905 l -15.1559,7.69757 -24.3684,0.73319 c -21.2457,0.63924 -25.2688,0.30671 -31.3949,-2.59508 z"
         id="path9"
         transform="matrix(0.26458333,0,0,0.26458333,-27.252089,16.404161)" /><path
         style="fill:#0032a0;fill-opacity:1;stroke-width:1.75663"
         d="m 1434.2925,825.5747 c -2.4154,-0.74948 -6.7631,-1.46275 -9.6615,-1.58505 -2.9186,-0.12314 -7.8985,-2.40278 -11.1611,-5.10921 l -5.8911,-4.88685 4.5737,-23.61121 c 2.5156,-12.98617 4.5738,-25.37859 4.5737,-27.53872 -10e-5,-2.71318 -2.3084,-5.37872 -7.4658,-8.62121 -4.1061,-2.58153 -14.4554,-9.31188 -22.9983,-14.95632 -8.543,-5.64444 -16.9941,-10.26261 -18.7802,-10.26261 -4.4543,0 -5.5502,-2.39355 -3.5295,-7.70839 1.0665,-2.80519 3.543,-4.89641 6.5999,-5.57321 12.1165,-2.68256 22.7923,-6.78138 26.603,-10.21383 l 4.1437,-3.73242 2.8828,4.32982 c 23.677,35.56128 54.5558,58.32854 89.8774,66.26756 14.7347,3.31181 15.5219,4.17402 19.3859,21.23368 l 1.3037,5.75594 -6.4129,-1.15641 c -3.5272,-0.63603 -7.801,-1.87318 -9.4975,-2.74922 -6.462,-3.33684 -16.8257,2.02667 -27.8206,14.39797 -7.2838,8.19553 -12.3604,12.27607 -16.9715,13.64154 -10.3107,3.05324 -15.0161,3.54826 -19.7538,2.07815 z"
         id="path10"
         transform="matrix(0.26458333,0,0,0.26458333,-27.252089,16.404161)" /><path
         style="fill:#0032a0;fill-opacity:1;stroke-width:1.75663"
         d="m 1358.1427,854.30415 c -6.2261,-12.39562 -14.0424,-27.33126 -17.3696,-33.19031 -4.8959,-8.62164 -5.7386,-11.46861 -4.4194,-14.93139 0.8965,-2.35322 2.2901,-8.81299 3.0967,-14.35504 0.8067,-5.54206 3.1264,-12.40728 5.1549,-15.25606 2.0285,-2.84877 6.346,-13.30301 9.5945,-23.23164 3.2484,-9.92862 6.5908,-18.26646 7.4276,-18.52853 0.8367,-0.26207 4.3557,1.28832 7.8199,3.44531 7.5306,4.68898 26.0945,16.542 33.8298,21.60029 6.4205,4.19848 6.3832,2.7939 0.8992,33.9021 l -4.1382,23.47445 7.6916,6.82751 c 5.8987,5.23603 9.1745,6.83377 14.0531,6.8544 3.4988,0.0148 7.4942,0.74374 8.8788,1.61988 2.836,1.79463 6.949,15.75234 7.0666,23.98068 0.077,5.40379 -3e-4,5.44847 -18.8063,10.84088 -10.3861,2.97811 -22.8363,5.89327 -27.667,6.47815 -4.8307,0.58488 -11.7102,1.50068 -15.2876,2.03512 l -6.5045,0.97169 z"
         id="path11"
         transform="matrix(0.26458333,0,0,0.26458333,-27.252089,16.404161)" /><path
         style="fill:#0032a0;fill-opacity:1;stroke-width:1.75663"
         d="m 1576.0115,961.48205 c -0.6535,-0.65355 -1.1882,-2.95755 -1.1882,-5.12 0,-2.16246 -5.4197,-15.27135 -12.0438,-29.13087 -6.624,-13.85951 -13.1445,-28.26793 -14.4899,-32.0187 -1.3454,-3.75077 -5.2139,-9.12072 -8.5967,-11.93321 l -6.1506,-5.11363 -32.4977,0.51508 -32.4978,0.51509 -8.6879,5.70906 c -4.8817,3.2079 -11.0384,5.7361 -14.0531,5.77077 -10.4011,0.11964 -27.5658,4.8238 -31.67,8.67948 -3.3297,3.12815 -4.7776,3.49617 -7.6683,1.94913 -5.6279,-3.01199 -8.2306,-2.32599 -16.0909,4.24108 -4.0474,3.38152 -7.877,6.14083 -8.5102,6.13178 -0.6332,-0.009 -2.9853,-6.05444 -5.2268,-13.43421 -2.9616,-9.75077 -3.5219,-13.75987 -2.0501,-14.66951 1.114,-0.68846 7.9519,-1.75272 15.1955,-2.36502 13.1548,-1.11199 48.6991,-10.402 52.8515,-13.8135 2.4573,-2.01885 2.8366,-21.12936 0.5328,-26.84503 -1.8852,-4.67696 0.9461,-7.90486 6.9334,-7.90486 8.9939,0 17.0723,-4.93839 25.3833,-15.51703 10.6202,-13.51775 13.9399,-14.96646 27.2048,-11.87197 14.2667,3.32819 14.5252,3.57631 13.1664,12.63757 -0.705,4.70087 -0.3425,9.76061 0.9169,12.80118 1.7505,4.22601 3.6739,5.36978 12.0604,7.17179 26.5197,5.6983 24.9116,5.65068 32.8917,0.97403 4.5721,-2.67946 19.4138,-7.12527 38.726,-11.60038 17.222,-3.99075 33.1763,-7.96443 35.454,-8.83041 6.9615,-2.64673 7.1668,-1.9443 2.6795,9.16525 -5.9288,14.67822 -7.4141,34.33968 -3.0923,40.93548 2.3937,3.65337 3.2715,8.96352 3.6051,21.8103 0.2426,9.33965 1.0067,28.59878 1.698,42.79808 l 1.257,25.81691 -4.5521,1.14249 c -4.4652,1.1207 -8.1224,1.16525 -27.5454,0.33549 -5.3139,-0.22701 -14.8578,0.18785 -21.2089,0.9219 -6.351,0.73405 -12.082,0.79993 -12.7356,0.14639 z"
         id="path12"
         transform="matrix(0.26458333,0,0,0.26458333,-27.252089,16.404161)" /><path
         style="fill:#0032a0;fill-opacity:1;stroke-width:1.75663"
         d="m 1536.686,832.03336 c -4.0679,-1.11283 -8.3962,-3.03151 -9.6183,-4.26374 -1.2222,-1.23222 -2.7421,-8.74183 -3.3778,-16.68803 -0.6356,-7.94619 -2.7062,-18.99292 -4.6013,-24.54828 l -3.4457,-10.10065 25.6378,-0.0193 c 14.1007,-0.0106 28.602,-0.50931 32.2251,-1.10816 6.0763,-1.00435 6.5856,-0.76433 6.5651,3.09344 -0.012,2.30025 -2.3817,8.83506 -5.2655,14.52181 l -5.2433,10.33954 3.5089,5.67752 c 6.2793,10.16009 4.9586,13.4554 -7.9425,19.8172 -12.161,5.99686 -16.6253,6.51148 -28.4425,3.27868 z"
         id="path13"
         transform="matrix(0.26458333,0,0,0.26458333,-27.252089,16.404161)" /><path
         style="fill:#0032a0;fill-opacity:1;stroke-width:1.75663"
         d="m 1584.5715,820.81947 c -0.5308,-1.38321 -0.9931,-4.22885 -1.0273,-6.32367 -0.034,-2.09481 -1.0869,-5.65593 -2.3392,-7.91359 -1.9561,-3.52653 -1.7666,-5.13514 1.3449,-11.41813 1.992,-4.02231 4.0327,-10.79605 4.535,-15.05274 l 0.9131,-7.73945 13.3929,-4.60857 c 15.1235,-5.20411 33.3205,-16.28474 46.3327,-28.21313 4.8308,-4.42839 11.836,-10.30168 15.5672,-13.05175 8.865,-6.53398 30.0498,-38.6632 29.5778,-44.8581 -0.4479,-5.87834 8.3367,-16.61593 17.3598,-21.21916 3.757,-1.91669 7.9797,-5.25331 9.3837,-7.41472 2.9545,-4.54837 10.5042,-25.0097 13.3579,-36.20303 l 1.958,-7.68031 11.7318,1.14097 c 8.7063,0.84673 15.0133,0.30353 24.4562,-2.10629 12.6734,-3.23424 12.7382,-3.23267 16.1406,0.39111 3.0691,3.26875 3.2541,4.8876 1.8211,15.93482 -0.8773,6.76305 -3.6537,20.20131 -6.1698,29.8628 -2.5162,9.66149 -4.8429,21.91402 -5.1706,27.22784 -0.3312,5.37223 -2.9449,15.51049 -5.8872,22.83626 -2.9104,7.24612 -5.8315,15.34859 -6.4914,18.00551 -1.1706,4.71344 -1.5079,4.83074 -13.8911,4.83074 -6.9802,0 -17.312,-0.92796 -22.9595,-2.06213 -9.9461,-1.99746 -10.3546,-1.93094 -13.0285,2.12134 -1.5183,2.3009 -5.3296,6.7597 -8.4696,9.90843 -3.6053,3.6154 -5.709,7.46501 -5.709,10.4471 0,4.99592 -12.0203,18.23123 -16.5576,18.23123 -2.7914,0 -14.4216,12.48267 -17.0931,18.34598 -1.0286,2.25736 -3.8264,5.1513 -6.2175,6.43095 -2.3911,1.27968 -5.482,4.5207 -6.8687,7.20231 -4.0238,7.78109 -18.9192,13.81125 -54.622,22.11277 -12.2794,2.85516 -14.548,2.97834 -15.3706,0.83461 z"
         id="path14"
         transform="matrix(0.26458333,0,0,0.26458333,-27.252089,16.404161)" /><path
         style="fill:#0032a0;fill-opacity:1;stroke-width:1.75663"
         d="m 1713.0558,951.67697 c -5.5836,-2.9961 -11.4338,-7.61728 -13.0004,-10.2693 -3.3418,-5.6572 -6.7702,-7.42458 -20.2579,-10.44298 -10.8621,-2.43084 -9.891,-2.7566 -23.1411,7.76251 -3.5164,2.79164 -6.6874,4.76786 -7.0467,4.39159 -0.7704,-0.80688 -2.7253,-32.28775 -3.4808,-56.05267 -0.3664,-11.52812 -1.4724,-18.54204 -3.5605,-22.57998 -5.1292,-9.9188 0.1001,-33.39193 10.467,-46.98362 2.5807,-3.38343 5.4347,-8.84094 6.3422,-12.12779 1.0562,-3.82511 3.3656,-6.78977 6.4162,-8.23675 2.6213,-1.24336 6.2096,-5.2147 7.9739,-8.82521 3.4223,-7.00321 7.3241,-10.56044 21.5695,-19.66457 l 8.9676,-5.73113 2.8366,5.44032 c 2.3929,4.58917 2.5899,8.05118 1.2591,22.12835 -0.8676,9.17842 -2.8985,20.45543 -4.5132,25.06002 -3.5981,10.26127 -2.9213,16.8457 4.4663,43.44874 3.0854,11.11072 6.3114,24.54898 7.1689,29.8628 2.2386,13.87232 8.6362,67.31625 8.12,67.83244 -0.2391,0.23908 -5.0031,-2.01667 -10.5867,-5.01277 z"
         id="path15"
         transform="matrix(0.26458333,0,0,0.26458333,-27.252089,16.404161)" /><path
         style="fill:#0032a0;fill-opacity:1;stroke-width:1.75663"
         d="m 1732.2418,956.04859 c -1.7755,-5.9625 -6.4644,-41.30419 -7.8708,-59.32434 -0.7831,-10.03327 -2.2524,-19.26742 -3.2651,-20.52033 -1.0127,-1.25291 -2.4155,-5.8352 -3.1173,-10.18288 -0.7018,-4.34767 -3.1979,-14.03395 -5.5469,-21.52508 -4.7054,-15.00543 -4.4429,-20.81938 1.5857,-35.12639 3.3423,-7.93208 6.8524,-10.43679 9.2315,-6.58738 2.0333,3.28998 8.8286,1.76641 21.9903,-4.93043 12.5847,-6.4033 13.2289,-7.03317 15.1804,-14.84388 2.7828,-11.13741 3.4156,-11.84512 10.592,-11.84512 6.2729,0 6.2741,0.002 5.1855,6.58738 -0.5988,3.62306 -1.0975,10.24721 -1.1081,14.72034 -0.018,7.73758 -0.4677,8.4754 -9.2417,15.17664 -6.0299,4.60543 -11.0111,10.42906 -14.3897,16.82347 l -5.1674,9.77979 6.4353,12.81122 c 8.8172,17.55326 10.9558,27.91762 7.2423,35.09884 -2.0627,3.98878 -2.5354,7.81805 -1.7219,13.95016 1.0234,7.71508 0.4271,9.74664 -6.8372,23.29466 -6.8724,12.817 -7.9585,16.26153 -7.9585,25.24135 0,9.43869 -0.4131,10.58713 -4.4742,12.43748 -5.7079,2.6007 -5.6592,2.60818 -6.7442,-1.0355 z"
         id="path16"
         transform="matrix(0.26458333,0,0,0.26458333,-27.252089,16.404161)" /><path
         style="fill:#0032a0;fill-opacity:1;stroke-width:1.75663"
         d="m 1761.9421,920.53698 c -0.5766,-0.93302 0.6621,-5.04918 2.7526,-9.14702 3.3379,-6.5428 3.5382,-8.17749 1.6439,-13.416 -1.8491,-5.11358 -1.7027,-6.80899 1.0247,-11.87358 2.8542,-5.29997 2.9633,-7.18269 1.059,-18.28768 -1.2654,-7.37909 -4.3304,-16.29103 -7.5881,-22.06338 -5.0417,-8.9333 -5.2898,-10.12284 -3.2015,-15.34656 1.2451,-3.11445 7.2609,-10.50619 13.3686,-16.42608 10.6113,-10.28502 11.1072,-11.14392 11.1575,-19.32299 0.029,-4.70774 1.8421,-16.85964 4.0293,-27.0042 l 3.9768,-18.44467 11.3412,-1.88451 c 6.2377,-1.03648 13.4902,-2.42865 16.1167,-3.09371 6.033,-1.52763 7.4206,0.99779 16.247,29.57111 3.5814,11.59379 9.7014,28.19399 13.6,36.88933 8.8585,19.7576 19.9335,53.31251 21.5337,65.24255 l 1.2113,9.03023 -33.0754,10.97631 c -18.1914,6.03696 -40.5027,14.42351 -49.5807,18.63677 -16.3156,7.57232 -23.5777,9.26309 -25.6166,5.96408 z"
         id="path17"
         transform="matrix(0.26458333,0,0,0.26458333,-27.252089,16.404161)" /><path
         style="fill:#0032a0;fill-opacity:1;stroke-width:1.75663"
         d="m 1954.1187,933.94416 c -19.9902,-8.7284 -46.6046,-23.35428 -60.8807,-33.45688 -13.9709,-9.88669 -14.2669,-10.42415 -18.9813,-34.46624 -3.1011,-15.8148 -14.0844,-47.69438 -21.4848,-62.36054 -3.5619,-7.059 -10.6058,-27.55387 -20.8291,-60.6039 -0.478,-1.54534 2.7985,-6.188 7.9233,-11.2271 l 8.7384,-8.59213 7.5926,5.8834 c 15.4338,11.95946 39.9246,33.47129 44.7634,39.31858 4.3432,5.24835 35.397,30.60805 70.7204,57.75296 l 11.0333,8.47872 -1.1773,16.11417 c -0.6476,8.86279 -2.269,23.22853 -3.6032,31.92388 -1.3343,8.69534 -3.2692,22.92408 -4.3,31.61943 -2.3031,19.42799 -3.4974,25.47756 -5.0246,25.44976 -0.6479,-0.0118 -7.1685,-2.63715 -14.4904,-5.83411 z"
         id="path18"
         transform="matrix(0.26458333,0,0,0.26458333,-27.252089,16.404161)" /><path
         style="fill:#0032a0;fill-opacity:1;stroke-width:1.75663"
         d="m 1951.6542,800.44793 c -16.4066,-12.72532 -38.547,-31.43705 -49.201,-41.58162 -10.654,-10.14457 -25.6879,-23.48931 -33.4088,-29.65498 -7.7208,-6.16567 -14.3123,-11.92938 -14.6476,-12.80825 -0.3354,-0.87886 1.4209,-5.71529 3.9028,-10.74762 4.8165,-9.76581 18.9449,-22.78081 23.0286,-21.21376 1.3037,0.5003 4.301,3.81462 6.6605,7.36517 6.4687,9.734 33.5861,32.59672 40.3268,33.99955 3.1568,0.65697 10.0873,2.772 15.4011,4.70006 9.6506,3.50162 9.6621,3.51471 10.1994,11.60161 0.4695,7.06658 1.3772,8.7026 7.1388,12.86629 3.6306,2.62364 10.7135,6.69004 15.7399,9.03646 l 9.1388,4.26621 -1.1868,23.83995 c -0.6527,13.11197 -1.6538,25.55623 -2.2246,27.65392 -0.9411,3.45826 -3.8199,1.6561 -30.8679,-19.32299 z"
         id="path19"
         transform="matrix(0.26458333,0,0,0.26458333,-27.252089,16.404161)" /><path
         style="fill:#0032a0;fill-opacity:1;stroke-width:1.75663"
         d="m 1971.3836,752.52981 c -9.6705,-5.97657 -10.1018,-6.55438 -10.1275,-13.56689 -0.015,-4.02845 -0.6077,-8.23653 -1.3175,-9.35129 -1.1595,-1.82098 -13.1324,-6.65876 -27.7458,-11.21098 -6.6806,-2.08108 -33.2682,-23.93319 -37.5257,-30.842 -1.7306,-2.80828 -4.8152,-6.58881 -6.8548,-8.40117 -4.9328,-4.38341 -2.9013,-7.98252 8.4471,-14.96527 5.1381,-3.1615 8.8224,-6.7099 8.8381,-8.51197 0.015,-1.69969 0.7399,-4.21686 1.6113,-5.59371 1.269,-2.00509 2.5251,-1.38532 6.3108,3.11371 6.3115,7.50078 9.4615,8.98801 27.0983,12.79393 22.5592,4.86815 27.2469,7.47397 33.5563,18.65368 4.9216,8.72049 5.8777,9.5186 10.577,8.82889 l 5.1663,-0.75826 -0.9497,16.82504 c -2.5514,45.20093 -2.9655,49.32174 -4.9517,49.27576 -1.1175,-0.0259 -6.5771,-2.85613 -12.1325,-6.28947 z"
         id="path20"
         transform="matrix(0.26458333,0,0,0.26458333,-27.252089,16.404161)" /><path
         style="fill:#0032a0;fill-opacity:1;stroke-width:1.75663"
         d="m 1979.1418,674.37066 c -5.0126,-8.77606 -13.5157,-12.90225 -35.8017,-17.37301 -14.5102,-2.91088 -16.5121,-3.83098 -23.9767,-11.02051 -4.4795,-4.31445 -10.791,-9.3345 -14.0256,-11.15566 -5.8105,-3.27149 -5.8683,-3.4271 -4.819,-12.9727 0.5841,-5.31382 3.2305,-15.47028 5.881,-22.56992 l 4.8191,-12.90842 13.0006,1.05114 c 7.1503,0.57812 33.7272,1.05114 59.0596,1.05114 h 46.059 l 1.2174,13.95622 1.2174,13.95622 -6.8787,6.21451 c -3.7833,3.41799 -9.0957,9.58784 -11.8052,13.71078 -2.7096,4.12295 -6.2488,9.47248 -7.865,11.88786 -3.3967,5.0763 -7.0517,18.55546 -7.0517,26.00548 0,4.45406 -0.5492,5.02177 -4.1857,4.32661 -2.3021,-0.44008 -4.7202,0.0648 -5.3736,1.12191 -2.2443,3.63134 -5.3788,1.88337 -9.4712,-5.28165 z"
         id="path21"
         transform="matrix(0.26458333,0,0,0.26458333,-27.252089,16.404161)" /><path
         style="fill:#0032a0;fill-opacity:1;stroke-width:1.75663"
         d="m 1857.6083,657.6097 -13.6843,-13.42486 10.8834,-22.147 c 5.986,-12.18085 12.6797,-26.3624 14.875,-31.51456 3.1444,-7.37959 4.6202,-9.11577 6.9542,-8.18112 1.6296,0.65254 7.5306,1.62021 13.1134,2.15037 5.5828,0.53016 10.4965,1.52373 10.9194,2.20793 0.4229,0.68421 -1.4799,6.69865 -4.2284,13.36542 -2.913,7.06561 -5.4248,17.0656 -6.0223,23.97521 -1.003,11.59986 -0.9135,11.93622 4.1785,15.70091 9.1007,6.72843 5.6955,15.80755 -8.0891,21.56709 -3.4908,1.45858 -6.7632,4.2435 -7.2719,6.18871 -1.7087,6.53415 -7.6634,3.81173 -21.6279,-9.8881 z"
         id="path22"
         transform="matrix(0.26458333,0,0,0.26458333,-27.252089,16.404161)" /><path
         style="fill:#0032a0;fill-opacity:1;stroke-width:1.75663"
         d="m 1815.4823,620.86203 c -11.1108,-9.2301 -21.2426,-17.8059 -22.5152,-19.05734 -1.9091,-1.87742 -0.6806,-5.62303 7.0248,-21.41758 5.1362,-10.52823 9.503,-19.43755 9.7038,-19.79849 0.2009,-0.36094 5.617,1.44614 12.0357,4.01573 6.4187,2.56959 19.0541,7.0372 28.0787,9.92802 l 16.4083,5.25604 -6.8294,14.85244 c -8.0298,17.46298 -21.5701,42.96083 -22.8271,42.98575 -0.4831,0.01 -9.9689,-7.53448 -21.0796,-16.76457 z"
         id="path23"
         transform="matrix(0.26458333,0,0,0.26458333,-27.252089,16.404161)" /><path
         style="fill:#0032a0;fill-opacity:1;stroke-width:1.75663"
         d="m 1689.6329,656.91309 c 3.2876,-22.62903 4.8717,-45.33446 5.8472,-83.81093 0.5939,-23.42912 1.5538,-42.59775 2.1329,-42.59696 2.4704,0.003 28.194,5.45846 37.064,7.86002 5.3139,1.43871 17.9616,4.6187 28.1062,7.06666 18.3977,4.43949 44.864,12.87954 41.0005,13.07499 -1.1203,0.0567 -5.3798,6.22932 -9.4655,13.71697 -15.0418,27.56651 -17.5827,29.14185 -45.5691,28.25252 l -18.4257,-0.58551 -3.0097,6.14822 c -1.6554,3.38152 -5.5663,14.30993 -8.691,24.28536 -5.3069,16.94198 -6.1072,18.35444 -12.1453,21.43482 -3.5551,1.81372 -9.0557,5.47851 -12.2235,8.14399 l -5.7595,4.84632 z"
         id="path24"
         transform="matrix(0.26458333,0,0,0.26458333,-27.252089,16.404161)" /><path
         style="fill:#0032a0;fill-opacity:1;stroke-width:1.75663"
         d="m 1765.2554,755.3304 c 1.5697,-11.83301 8.7913,-36.64981 15.1654,-52.11513 3.2635,-7.91829 5.1987,-15.72318 5.1987,-20.96757 0,-4.59475 1.5553,-13.93791 3.4563,-20.76258 1.9011,-6.82467 4.5859,-18.97987 5.9663,-27.01155 1.3804,-8.03168 2.9064,-14.99957 3.391,-15.4842 1.2885,-1.28846 38.2537,29.0466 56.2978,46.20009 l 15.534,14.76734 -9.3858,9.1528 c -6.5231,6.36113 -10.314,11.87715 -12.4291,18.08486 -6.0833,17.85474 -28.7084,31.90884 -52.9481,32.88992 -11.4442,0.46319 -12.6364,1.60534 -14.2998,13.69937 -1.1887,8.64306 -3.2299,10.27277 -12.9361,10.32848 -4.0022,0.023 -4.1294,-0.34809 -3.0106,-8.78183 z"
         id="path25"
         transform="matrix(0.26458333,0,0,0.26458333,-27.252089,16.404161)" /><path
         style="fill:#0032a0;fill-opacity:1;stroke-width:1.75663"
         d="m 1716.1049,792.03619 c -0.6672,-1.07954 -0.2315,-6.05431 0.9682,-11.05504 2.0819,-8.6786 1.9726,-9.39958 -2.4039,-15.84866 -6.2845,-9.26075 -6.7101,-17.45985 -1.1459,-22.07589 1.7469,-1.44923 4.087,-4.41355 5.2002,-6.58739 2.1239,-4.14736 9.389,-5.17751 20.642,-2.92691 l 5.1275,1.02551 -2.761,15.22336 c -1.5414,8.49819 -4.4827,17.93944 -6.6581,21.37159 -2.1433,3.38152 -3.9,7.85654 -3.9036,9.94449 0,2.08795 -2.4386,5.84276 -5.4112,8.34402 -5.9595,5.0146 -7.8412,5.51841 -9.6542,2.58492 z"
         id="path26"
         transform="matrix(0.26458333,0,0,0.26458333,-27.252089,16.404161)" /><path
         style="fill:#0032a0;fill-opacity:1;stroke-width:1.03942"
         d="m 1732.1931,795.49876 c 0,-0.34641 1.9072,-2.69889 4.2382,-5.22774 3.8668,-4.19499 4.1792,-4.94741 3.5644,-8.58609 -0.5867,-3.47283 -0.2188,-4.58423 2.8472,-8.60092 3.1931,-4.18321 3.6889,-5.81423 5.3243,-17.51564 0.9918,-7.0966 2.2718,-14.68261 2.8445,-16.85779 1.0173,-3.86387 1.1416,-3.94759 5.4034,-3.63797 4.11,0.2986 4.3562,0.49711 4.2605,3.43517 -0.1307,4.01146 -3.1883,22.036 -5.1423,30.31378 -0.8318,3.52392 -1.5124,7.63986 -1.5124,9.14654 0,5.16787 -2.7181,8.40237 -10.5992,12.61299 -8.9095,4.76002 -11.2286,5.77567 -11.2286,4.91767 z"
         id="path27"
         transform="matrix(0.26458333,0,0,0.26458333,-27.252089,16.404161)" /></g><g
       id="g139"
       style="display:inline"><path
         style="fill:#f2c91d;fill-opacity:1;stroke-width:0.264583"
         d="m -16.494855,130.45031 c 0,0 -0.632779,14.79728 -0.632779,14.79728 0,0 81.336369,-1.11953 81.336369,-1.11953 0,0 1.314233,-4.77018 1.314233,-4.77018 z"
         id="path42" /><path
         style="opacity:1;fill:#f2c91d;fill-opacity:1;stroke-width:0.264583"
         d="m -11.870705,107.71896 c 0,0 -3.553294,14.55391 -3.553294,14.55391 0,0 81.774446,14.5539 81.774446,14.5539 0,0 2.287739,-4.38077 2.287739,-4.38077 z"
         id="path43" /><path
         style="opacity:1;fill:#f2c91d;fill-opacity:1;stroke-width:0.264583"
         d="m 52.151646,33.475792 c 0,0 13.836282,-5.782327 13.836282,-5.782327 0,0 17.415817,52.006522 17.415817,52.006522 0,0 -12.528375,-6.986979 -12.528375,-6.986979 z"
         id="path44" /><path
         style="opacity:1;fill:#f2c91d;fill-opacity:1;stroke-width:0.264583"
         d="m 73.973045,25.421837 c 0,0 14.559071,-2.856745 14.559071,-2.856745 0,0 4.612095,33.248378 4.612095,33.248378 -2.294574,-2.455194 -4.589148,-4.910388 -6.252725,-6.602646 -1.663577,-1.692257 -2.696114,-2.62154 -3.436119,-3.235342 -0.740005,-0.613802 -1.187437,-0.91209 -1.58899,-1.181705 -0.401554,-0.269615 -0.757207,-0.510542 -1.27923,-0.65969 -0.522023,-0.149147 -1.21038,-0.20651 -1.898753,-0.263874 z"
         id="path45" /><path
         style="opacity:1;fill:#f2c91d;fill-opacity:1;stroke-width:0.264583"
         d="m 97.745995,34.71823 c 0,0 -0.815311,-12.801595 -0.815311,-12.801595 2.441875,-0.08518 4.883746,-0.170363 7.368246,-0.188616 2.48449,-0.01825 5.01149,0.03042 7.53855,0.0791 0,0 -0.66928,14.176671 -0.66928,14.176671 -0.13791,-0.811254 -0.27583,-1.62251 -0.96135,-3.023971 -0.68552,-1.401461 -1.9186,-3.39305 -2.83736,-4.709318 -0.91875,-1.316268 -1.52312,-1.957144 -1.94903,-2.291787 -0.42591,-0.334643 -0.67334,-0.363037 -0.96743,-0.373177 -0.29408,-0.01014 -0.6348,-0.002 -0.89846,0.09533 -0.26365,0.09735 -0.45024,0.283938 -1.02827,1.062756 -0.57803,0.778818 -1.54746,2.149811 -2.40942,3.577633 -0.86197,1.427823 -1.61642,2.912389 -2.370885,4.396985 z"
         id="path46" /><path
         style="opacity:1;fill:#f2c91d;fill-opacity:1;stroke-width:0.264583"
         d="m 99.473965,63.473144 c 0,0 -1.43592,-22.074234 -1.43592,-22.074234 0.38129,1.646847 0.76258,3.293694 1.151986,6.023602 0.389407,2.729909 0.786914,6.542729 1.087079,9.706647 0.30017,3.163917 0.50298,5.678756 0.70579,8.193645 z"
         id="path47" /><path
         style="opacity:1;fill:#f2c91d;fill-opacity:1;stroke-width:0.264583"
         d="m 108.70198,64.434481 c -0.069,0.255544 -0.20687,0.766636 -0.34478,1.277726 0.073,0.05679 0.14603,0.113576 0.31234,-0.07708 0.16631,-0.190651 0.4259,-0.628718 0.6855,-1.066796 0,0 1.55761,-22.877374 1.55761,-22.877374 0,0 -2.14171,22.487974 -2.21067,22.743519 z"
         id="path48" /><path
         style="opacity:1;fill:#f2c91d;fill-opacity:1;stroke-width:0.264583"
         d="m 115.65398,55.641377 c 0,0 4.40558,-33.213959 4.40558,-33.213959 2.4093,0.275349 4.81861,0.550698 7.30825,1.02683 2.48964,0.476131 5.05951,1.153016 7.62943,1.829915 0,0 -4.71535,17.725585 -4.71535,17.725585 -0.26388,-0.05737 -0.52775,-0.114729 -1.50296,0.55071 -0.97521,0.665439 -2.66169,2.05363 -4.3482,3.441847 z"
         id="path49" /><path
         style="opacity:1;fill:#f2c91d;fill-opacity:1;stroke-width:0.264583"
         d="m 125.4909,79.803695 c 0,0 17.15803,-52.204223 17.15803,-52.204223 2.37697,0.754467 4.75395,1.508934 7.08227,2.458113 2.32832,0.949178 4.6079,2.093024 6.88753,3.236893 0,0 -18.71564,39.621666 -18.71564,39.621666 -0.98973,0.373177 -1.97946,0.746354 -3.62633,1.638748 -1.64687,0.892394 -3.95079,2.30395 -5.52463,3.265291 -1.57384,0.961342 -2.41753,1.472422 -3.26123,1.983512 z"
         id="path50" /><path
         style="opacity:1;fill:#f2c91d;fill-opacity:1;stroke-width:0.264583"
         d="m 140.67631,132.34325 c 0,0 1.78977,4.40558 1.78977,4.40558 0,0 82.22606,-14.88605 82.22606,-14.88605 -0.48186,-2.63876 -0.96372,-5.27752 -1.56031,-7.72126 -0.5966,-2.44374 -1.3079,-4.69238 -2.01922,-6.94106 z"
         id="path51" /><path
         style="opacity:1;fill:#f2c91d;fill-opacity:1;stroke-width:0.264583"
         d="m 143.15445,139.17535 c 0,0 1.30791,4.8186 1.30791,4.8186 0,0 81.98513,0.99814 81.98513,0.99814 0.0459,-2.50109 0.0918,-5.00217 -0.0344,-7.50328 -0.1262,-2.50111 -0.42449,-5.00215 -0.72279,-7.50323 z"
         id="path52" /></g><g
       id="g136"
       style="fill:#f2c91d;fill-opacity:1"><path
         style="opacity:1;fill:#f2c91d;fill-opacity:1;stroke-width:0.264583"
         d="m 138.57678,136.57674 c 0.77442,1.67504 1.54883,3.35008 2.32039,5.57297 0.77156,2.2229 1.54023,4.99354 2.30891,7.76424 -1.00961,-1.37101 -2.01922,-2.74201 -3.51072,-4.47157 -1.49149,-1.72956 -3.46479,-3.81758 -5.43812,-5.90564 z"
         id="path53" /><path
         style="opacity:1;fill:#f2c91d;fill-opacity:1;stroke-width:0.264583"
         d="m 128.58177,122.19985 c -1.54949,0.40563 -3.09899,0.81125 -4.56332,1.42376 -1.46432,0.6125 -2.84343,1.43185 -4.22256,2.25122 2.18227,1.75231 4.36455,3.50462 6.39271,5.39081 2.02815,1.88619 3.90211,3.90617 5.77611,5.92619 0,0 6.40079,-3.67498 6.40079,-3.67498 -1.32234,-2.48244 -2.64469,-4.96488 -4.27533,-6.85106 -1.63064,-1.88618 -3.5695,-3.17604 -5.5084,-4.46594 z"
         id="path54" /><path
         style="opacity:1;fill:#f2c91d;fill-opacity:1;stroke-width:0.264583"
         d="m 116.99706,123.30721 c 1.03435,-0.63683 2.0687,-1.27367 3.1132,-1.82938 1.0445,-0.55571 2.09911,-1.03029 3.15374,-1.50487 -1.40753,-0.69362 -2.81505,-1.38725 -4.63229,-1.92471 -1.81723,-0.53746 -4.04407,-0.91874 -5.80451,-1.16415 -1.76043,-0.2454 -3.05436,-0.35492 -4.31182,-0.3894 -1.25745,-0.0345 -2.47836,0.006 -3.2876,0.0466 -0.80923,0.0406 -1.20673,0.0811 -1.60425,0.12169 0.3529,0.12169 0.70579,0.24337 1.73408,0.63076 1.02828,0.38738 2.73188,1.04043 4.78437,2.08696 2.0525,1.04653 4.45377,2.48648 6.85508,3.92645 z"
         id="path55" /><path
         style="opacity:1;fill:#f2c91d;fill-opacity:1;stroke-width:0.264583"
         d="m 83.678843,126.88485 c 1.930785,-1.63874 3.861569,-3.27747 5.94043,-4.69515 2.078861,-1.41768 4.305712,-2.61426 6.532605,-3.81086 -0.677397,-0.073 -1.354793,-0.14603 -2.555467,-0.071 -1.200674,0.075 -2.924556,0.29813 -3.991359,0.47661 -1.066803,0.17848 -1.476477,0.31233 -2.395237,0.69363 -0.91876,0.3813 -2.346542,1.01001 -3.995436,1.93079 -1.648894,0.92079 -3.518796,2.13359 -5.388738,3.34641 0.23932,0.0649 0.478641,0.1298 0.904555,0.24135 0.425915,0.11155 1.038398,0.26974 1.807072,0.53138 0.768673,0.26163 1.693485,0.62669 2.243111,0.87006 0.549626,0.24338 0.724045,0.36507 0.898464,0.48676 z"
         id="path56" /><path
         style="opacity:1;fill:#f2c91d;fill-opacity:1;stroke-width:0.264583"
         d="m 87.000488,127.64511 c 1.944652,-1.74388 3.889303,-3.48775 5.69343,-4.83296 1.804127,-1.3452 3.467657,-2.29169 4.614951,-2.93991 1.147294,-0.64822 1.778289,-0.99814 2.409296,-1.34806 1.342325,0.62527 2.684655,1.25054 4.964915,2.44087 2.28027,1.19033 5.49834,2.94564 8.71648,4.70099 -1.46279,0.76868 -2.92558,1.53737 -5.08824,3.07475 -2.16267,1.53739 -5.02509,3.84339 -7.88757,6.14944 -2.277366,-1.32512 -4.554735,-2.65024 -6.791967,-3.85777 -2.237232,-1.20753 -4.43424,-2.29743 -6.631295,-3.38735 z"
         id="path57" /><path
         style="opacity:1;fill:#f2c91d;fill-opacity:1;stroke-width:0.264583"
         d="m 104.07212,136.76604 c 1.88155,-1.43411 3.7631,-2.86821 5.84545,-4.30234 2.08235,-1.43412 4.3654,-2.8682 6.6485,-4.30231 1.04403,0.95798 2.08807,1.91597 3.62545,3.26118 1.53739,1.34521 3.56805,3.07758 5.12263,4.3855 1.55459,1.30791 2.63301,2.19131 3.71146,3.07472 -0.75721,0.29829 -1.51442,0.59659 -3.33576,1.76684 -1.82135,1.17025 -4.70672,3.21238 -7.59215,5.25455 -1.51442,-1.1645 -3.02883,-2.32899 -5.36646,-3.85203 -2.33763,-1.52305 -5.49834,-3.40456 -8.65912,-5.28611 z"
         id="path58" /><path
         style="opacity:1;fill:#f2c91d;fill-opacity:1;stroke-width:0.264583"
         d="m 121.29863,148.02093 c 1.9676,-1.25054 3.9352,-2.50109 5.7508,-3.70575 1.8156,-1.20466 3.47913,-2.3634 5.1427,-3.52216 1.89876,1.87008 3.79752,3.74015 5.5873,5.77087 1.78978,2.03072 3.47053,4.222 5.1513,6.41332 -0.0574,0.16062 -0.11473,0.32124 -0.74288,0.84326 -0.62815,0.52203 -1.82704,1.40542 -3.28125,2.46954 -1.4542,1.06412 -3.16362,2.3089 -4.87308,3.55371 -2.00202,-2.11674 -4.00403,-4.23349 -6.12654,-6.20397 -2.1225,-1.97049 -4.3654,-3.79463 -6.60835,-5.61882 z"
         id="path59" /><path
         style="opacity:1;fill:#f2c91d;fill-opacity:1;stroke-width:0.264583"
         d="m 143.06267,157.79364 c 0.1298,2.20256 0.2596,4.40511 0.35492,6.44543 0.0953,2.04033 0.15617,3.91834 0.0811,5.09467 -0.075,1.17632 -0.28596,1.6509 -0.49689,2.12548 -1.08302,-1.37508 -2.16605,-2.75015 -3.31804,-4.18203 -1.15199,-1.43188 -2.3729,-2.9205 -3.59384,-4.40915 z"
         id="path60" /><path
         style="opacity:1;fill:#f2c91d;fill-opacity:1;stroke-width:0.264583"
         d="m 75.81444,126.62976 c 0.831784,0.54496 1.663564,1.08992 2.601482,1.51442 0.937918,0.42451 1.981931,0.72853 3.025962,1.03256 -1.170233,0.91783 -2.340465,1.83566 -3.602494,3.06614 -1.26203,1.23048 -2.615802,2.77355 -3.958141,4.46582 -1.342338,1.69226 -2.673167,3.53362 -4.00402,5.37502 -0.367131,-0.1262 -0.734264,-0.25241 -1.035427,-0.42737 -0.301164,-0.17496 -0.536356,-0.39868 -0.77155,-0.6224 0.269613,-0.87194 0.539228,-1.74388 1.058383,-3.04606 0.519155,-1.30219 1.287822,-3.03456 1.867206,-4.2679 0.579383,-1.23334 0.969453,-1.96759 1.568919,-2.91124 0.599466,-0.94366 1.408286,-2.09666 1.984802,-2.82806 0.576515,-0.7314 0.920692,-1.04116 1.264878,-1.35093 z"
         id="path61" /><path
         style="opacity:1;fill:#f2c91d;fill-opacity:1;stroke-width:0.264583"
         d="m 72.923277,142.85814 c 1.130078,-1.36527 2.260157,-2.73055 3.393114,-4.0442 1.132957,-1.31366 2.268749,-2.57565 3.301318,-3.71147 1.032569,-1.13583 1.961851,-2.14542 2.710462,-2.9055 0.748611,-0.76009 1.316504,-1.27062 1.884411,-1.78116 1.026822,0.49333 2.053645,0.98667 3.559478,1.75249 1.505833,0.76582 3.490602,1.8041 5.205809,2.72193 1.715207,0.91784 3.160762,1.71519 4.606344,2.51256 -0.539225,0.36139 -1.078453,0.72279 -1.864353,1.35093 -0.785901,0.62815 -1.818442,1.52302 -3.221018,2.76497 -1.402577,1.24196 -3.175099,2.83092 -4.417044,3.97821 -1.241945,1.1473 -1.953248,1.85287 -2.664566,2.55845 -0.929302,-0.43023 -1.858606,-0.86047 -2.922726,-1.32512 -1.064119,-0.46466 -2.263009,-0.96372 -3.585272,-1.50582 -1.322264,-0.5421 -2.767816,-1.1272 -3.786039,-1.52876 -1.018224,-0.40155 -1.609065,-0.61953 -2.199918,-0.83751 z"
         id="path62" /><path
         style="opacity:1;fill:#f2c91d;fill-opacity:1;stroke-width:0.264583"
         d="m 89.690237,149.53101 c 1.014069,-0.98973 2.028137,-1.97946 3.139567,-3.00165 1.11143,-1.02219 2.320176,-2.0768 3.478255,-3.0564 1.158078,-0.9796 2.265418,-1.88413 3.036115,-2.49054 0.770696,-0.60642 1.204706,-0.91468 1.638726,-1.22296 1.26556,0.83153 2.53111,1.66307 3.52694,2.23906 0.99582,0.57599 1.72187,0.89643 2.48852,1.30815 0.76664,0.41172 1.57382,0.91468 2.59196,1.53327 1.01814,0.61859 2.24716,1.35276 3.18416,1.9105 0.93701,0.55774 1.58195,0.93903 2.2269,1.32032 -0.95728,0.6125 -1.91457,1.225 -2.88808,1.90037 -0.97351,0.67537 -1.96323,1.4136 -2.92863,2.14576 -0.9654,0.73217 -1.90644,1.45823 -2.76435,2.13563 -0.8579,0.6774 -1.63264,1.30611 -2.29584,1.874 -0.66321,0.56788 -1.21485,1.07491 -1.7665,1.58194 -1.02218,-0.72607 -2.04436,-1.45215 -2.993541,-2.0971 -0.949177,-0.64495 -1.825314,-1.20876 -2.760297,-1.78476 -0.934982,-0.57599 -1.928745,-1.16414 -3.090881,-1.88211 -1.162136,-0.71797 -2.492567,-1.56572 -3.823024,-2.41348 z"
         id="path63" /><path
         style="opacity:1;fill:#f2c91d;fill-opacity:1;stroke-width:0.264583"
         d="m 105.85043,159.69198 c 1.51704,-1.16415 3.03409,-2.3283 4.35847,-3.30993 1.32439,-0.98163 2.45606,-1.78069 3.59994,-2.6386 1.14388,-0.85792 2.2999,-1.77462 3.0564,-2.37292 0.7565,-0.5983 1.11344,-0.87818 1.47039,-1.15806 1.73609,1.45214 3.47217,2.90429 4.70529,3.91025 1.23311,1.00596 1.96322,1.56571 2.90835,2.37495 0.94512,0.80924 2.10519,1.8679 3.0787,2.76029 0.97352,0.89239 1.76041,1.61845 2.54733,2.34452 0,0 -11.76724,9.04143 -11.76724,9.04143 -2.54734,-2.09709 -5.09468,-4.19419 -7.42097,-6.01953 -2.3263,-1.82533 -4.43146,-3.37885 -6.53666,-4.9324 z"
         id="path64" /><path
         style="opacity:1;fill:#f2c91d;fill-opacity:1;stroke-width:0.264583"
         d="m 122.81375,172.55441 c 2.57979,-1.89833 5.15958,-3.79667 7.01737,-5.19203 1.85778,-1.39537 2.99351,-2.28773 4.12927,-3.18011 1.14387,1.40347 2.28774,2.80694 3.44379,4.22259 1.15605,1.41566 2.32424,2.84344 3.20445,4.27126 0.88022,1.42782 1.47243,2.8556 1.74825,3.63441 0.27582,0.77881 0.23526,0.9086 0.1947,1.0384 -0.90861,0.89238 -1.81721,1.78476 -3.1558,2.94892 -1.33859,1.16417 -3.10709,2.60006 -4.87562,4.03598 -1.37102,-1.63062 -2.74204,-3.26124 -4.69313,-5.2245 -1.9511,-1.96326 -4.48216,-4.25907 -7.01328,-6.55492 z"
         id="path65" /><path
         style="opacity:1;fill:#f2c91d;fill-opacity:1;stroke-width:0.264583"
         d="m 136.05343,187.32736 c 1.01001,-0.89238 2.02002,-1.78476 3.0706,-2.67107 1.05059,-0.8863 2.1417,-1.7665 3.23284,-2.64671 -0.0122,1.26556 -0.0243,2.53112 -0.0771,3.54114 -0.0527,1.01002 -0.14603,1.76447 -0.33465,2.67917 -0.18862,0.9147 -0.47255,1.98959 -0.75649,3.01787 -0.28395,1.02827 -0.56788,2.00987 -0.85182,2.99149 z"
         id="path66" /><path
         style="opacity:1;fill:#f2c91d;fill-opacity:1;stroke-width:0.264583"
         d="m 67.525292,144.07999 c 0.309768,0.0918 0.883412,0.33845 1.457056,0.58512 -0.464652,0.69411 -0.929304,1.38822 -1.388224,2.26304 -0.458921,0.87482 -0.912088,1.9303 -1.365266,2.9858 -0.05736,-0.28108 -0.114729,-0.56217 -0.100387,-1.03257 0.01434,-0.47039 0.100386,-1.13006 0.278219,-1.95612 0.177832,-0.82606 0.447439,-1.81844 0.717052,-2.81085 0.04589,-0.0631 0.09178,-0.1262 0.40155,-0.0344 z"
         id="path67" /><path
         style="opacity:1;fill:#f2c91d;fill-opacity:1;stroke-width:0.264583"
         d="m 65.695368,157.48605 c -0.246667,-0.32698 -0.493336,-0.65396 -0.499067,-1.05838 -0.0057,-0.40443 0.229456,-0.88628 0.46465,-1.36814 0.699845,-1.53736 1.399688,-3.07472 2.24869,-4.63792 0.849002,-1.56319 1.847124,-3.15216 2.845264,-4.74115 1.39969,0.46465 2.79938,0.92931 4.167533,1.47427 1.368153,0.54497 2.704718,1.17023 4.029847,1.77543 1.325129,0.6052 2.638746,1.1903 3.95239,1.77542 -1.101396,1.11287 -2.202795,2.22574 -3.35583,3.47629 -1.153035,1.25056 -2.35766,2.63875 -3.547983,4.09008 -1.190323,1.45134 -2.366267,2.96572 -3.542236,4.48014 -0.82031,-0.56791 -1.640618,-1.13581 -2.581406,-1.84427 -0.940787,-0.70846 -2.002005,-1.55743 -2.719064,-2.15115 -0.717059,-0.59373 -1.08992,-0.93217 -1.462788,-1.27062 z"
         id="path68" /><path
         style="opacity:1;fill:#f2c91d;fill-opacity:1;stroke-width:0.264583"
         d="m 64.829345,161.05488 c -0.05679,1.7442 -0.113576,3.4884 -0.117631,5.1596 -0.0041,1.6712 0.04462,3.26934 0.123717,4.54099 0.0791,1.27165 0.188615,2.21674 0.316389,2.83532 0.127775,0.61859 0.273798,0.91064 0.419824,1.20269 0.105463,-0.19876 0.210925,-0.39752 0.65915,-1.25949 0.448224,-0.86197 1.239183,-2.3871 2.032192,-3.92647 0.793009,-1.53937 1.588024,-3.0929 2.383054,-4.64645 -0.993787,-0.57599 -1.987574,-1.15198 -2.957033,-1.80302 -0.969459,-0.65104 -1.91455,-1.3771 -2.859662,-2.10317 z"
         id="path69" /><path
         style="opacity:1;fill:#f2c91d;fill-opacity:1;stroke-width:0.264583"
         d="m 75.988149,164.54733 c 1.533271,-1.82532 3.066542,-3.65064 4.474081,-5.20826 1.407539,-1.55762 2.689294,-2.84749 3.772329,-3.95487 1.083035,-1.10737 1.967284,-2.03218 2.851551,-2.95701 0.892381,0.55165 1.784762,1.10331 2.648757,1.61035 0.863996,0.50703 1.699569,0.96944 2.766382,1.56166 1.066814,0.59223 2.364791,1.31423 3.415374,1.93484 1.050582,0.62062 1.853709,1.13981 2.454041,1.51705 0.600332,0.37723 0.997839,0.61249 1.395353,0.84776 -0.632778,0.649 -1.265553,1.298 -2.40944,2.31614 -1.143887,1.01814 -2.798815,2.40536 -4.336156,3.80073 -1.537341,1.39537 -2.957007,2.79881 -3.967024,3.77232 -1.010018,0.97351 -1.610333,1.51704 -2.210661,2.06058 -0.778805,-0.47864 -1.55761,-0.95728 -2.567634,-1.65091 -1.010024,-0.69363 -2.251221,-1.60222 -3.670931,-2.57979 -1.41971,-0.97757 -3.01785,-2.02407 -4.616022,-3.07059 z"
         id="path70" /><path
         style="opacity:1;fill:#f2c91d;fill-opacity:1;stroke-width:0.264583"
         d="m 90.493978,173.62838 c 1.101396,-1.11287 2.202792,-2.22574 3.177995,-3.22389 0.975203,-0.99815 1.824178,-1.88154 2.742017,-2.76496 0.917839,-0.88342 1.904488,-1.76682 2.960003,-2.67892 1.055517,-0.9121 2.179837,-1.85286 3.304177,-2.79363 1.45705,0.96372 2.9141,1.92744 4.44575,3.04032 1.53164,1.11288 3.13781,2.37487 4.78418,3.64264 1.64638,1.26776 3.33286,2.54122 5.01937,3.81471 -0.89488,0.59659 -1.78977,1.19318 -3.06327,2.1225 -1.27351,0.92931 -2.92557,2.1913 -4.71535,3.62543 -1.78979,1.43412 -3.7172,3.04029 -5.64464,4.64649 -1.19318,-1.08992 -2.38635,-2.17984 -3.579545,-3.17225 -1.193192,-0.99242 -2.386342,-1.88728 -3.665582,-2.76497 -1.27924,-0.87768 -2.644486,-1.73813 -3.619686,-2.31751 -0.975199,-0.57938 -1.560303,-0.87767 -2.145419,-1.17596 z"
         id="path71" /><path
         style="opacity:1;fill:#f2c91d;fill-opacity:1;stroke-width:0.264583"
         d="m 107.04933,184.91768 c 1.21612,-1.00961 2.43225,-2.01923 3.40745,-2.82234 0.9752,-0.8031 1.70945,-1.39968 2.63303,-2.11101 0.92358,-0.71133 2.03642,-1.53735 3.03457,-2.30604 0.99815,-0.76869 1.88154,-1.47999 2.4724,-1.97333 0.59085,-0.49334 0.88914,-0.76868 1.18743,-1.04403 1.41116,1.31938 2.82233,2.63876 4.20482,3.92947 1.3825,1.29071 2.73627,2.5527 4.04993,3.91799 1.31366,1.36529 2.58712,2.83378 3.86061,4.30231 -1.04403,0.78016 -2.08806,1.56031 -3.3042,2.49536 -1.21614,0.93505 -2.60433,2.02495 -3.96961,3.0862 -1.36529,1.06125 -2.70759,2.09379 -4.04992,3.12635 -1.03256,-0.99814 -2.06511,-1.99628 -3.17226,-2.95427 -1.10714,-0.958 -2.28882,-1.87581 -3.59674,-2.86822 -1.30792,-0.99242 -2.74201,-2.05938 -3.8893,-2.86822 -1.1473,-0.80884 -2.00774,-1.35952 -2.86821,-1.91022 z"
         id="path72" /><path
         style="opacity:1;fill:#f2c91d;fill-opacity:1;stroke-width:0.264583"
         d="m 123.05398,197.65257 c 1.64062,-1.17023 3.28124,-2.34047 4.64079,-3.40172 1.35955,-1.06125 2.43797,-2.01348 3.47054,-2.93132 1.03257,-0.91784 2.01922,-1.80123 3.00589,-2.68464 0.71132,0.97519 1.42263,1.95039 2.24295,3.178 0.82032,1.22761 1.7496,2.70758 2.30604,3.76883 0.55644,1.06125 0.74,1.70371 0.75721,2.30031 0.0172,0.59659 -0.13194,1.14728 -0.43597,1.91597 -0.30404,0.76869 -0.76295,1.75534 -1.46854,3.0059 -0.70559,1.25056 -1.65782,2.76495 -2.56419,3.98682 -0.90636,1.22187 -1.76681,2.15115 -2.62727,3.08045 -0.2983,-0.58512 -0.59659,-1.17023 -0.91784,-1.70372 -0.32124,-0.5335 -0.66542,-1.01535 -1.08992,-1.61768 -0.4245,-0.60233 -0.9293,-1.32511 -1.49721,-2.08233 -0.56791,-0.75722 -1.19891,-1.54883 -1.89876,-2.36915 -0.69986,-0.82032 -1.46852,-1.66929 -2.13396,-2.41503 -0.66543,-0.74575 -1.22759,-1.38821 -1.78976,-2.03069 z"
         id="path73" /><path
         style="opacity:1;fill:#f2c91d;fill-opacity:1;stroke-width:0.264583"
         d="m 118.23538,217.47768 c 0.97519,-0.33271 1.95039,-0.66542 2.70761,-0.96372 0.75721,-0.2983 1.29642,-0.56217 1.84712,-0.84326 0.55071,-0.28108 1.11287,-0.57937 1.75535,-0.93504 0.64249,-0.35566 1.36527,-0.76868 2.0307,-1.15876 0.66543,-0.39008 1.27348,-0.7572 1.77829,-1.1186 0.50481,-0.36139 0.90636,-0.71705 1.30791,-1.07271 -0.56217,-0.65395 -1.12435,-1.30791 -1.67505,-2.05365 -0.5507,-0.74575 -1.08992,-1.58325 -1.6693,-2.35194 -0.57939,-0.76869 -1.19891,-1.46852 -2.01349,-2.329 -0.81459,-0.86047 -1.82418,-1.88154 -2.55271,-2.58712 -0.72853,-0.70559 -1.17597,-1.09565 -1.62341,-1.48573 -0.6769,0.56217 -1.3538,1.12434 -2.27738,1.87582 -0.92357,0.75148 -2.09378,1.69223 -3.11488,2.48961 -1.02109,0.79737 -1.89301,1.45131 -2.77069,2.1569 -0.87769,0.70559 -1.76108,1.46279 -2.44946,2.01922 -0.68837,0.55644 -1.1817,0.91209 -1.67503,1.26775 0.75721,0.56217 1.51442,1.12434 2.57567,1.83567 1.06126,0.71132 2.4265,1.57177 3.78031,2.4724 1.35381,0.90063 2.69611,1.84139 4.03844,2.78216 z"
         id="path74" /><path
         style="opacity:1;fill:#f2c91d;fill-opacity:1;stroke-width:0.264583"
         d="m 96.104211,218.02838 c 1.089923,0.33271 2.179847,0.66543 3.321408,0.88915 1.141561,0.22372 2.334721,0.33845 3.482011,0.3786 1.1473,0.0402 2.24868,0.006 3.53939,-0.086 1.29071,-0.0918 2.77068,-0.24093 3.98108,-0.36714 1.2104,-0.1262 2.15115,-0.22945 2.93705,-0.35566 0.7859,-0.1262 1.41689,-0.27534 2.0479,-0.42449 -1.48,-0.87194 -2.96,-1.74387 -4.30234,-2.5183 -1.34233,-0.77442 -2.54696,-1.45131 -3.55085,-2.05938 -1.00388,-0.60807 -1.80697,-1.14728 -2.61007,-1.68651 -1.20465,0.94078 -2.4093,1.88155 -3.43613,2.67893 -1.02683,0.79737 -1.875806,1.45131 -2.747752,2.01922 -0.871947,0.56791 -1.766813,1.04976 -2.661697,1.53162 z"
         id="path75" /><path
         style="opacity:1;fill:#f2c91d;fill-opacity:1;stroke-width:0.264583"
         d="m 81.132115,212.03954 c 0.986667,0.69985 1.973333,1.39969 3.797546,2.34048 1.824214,0.94079 4.485867,2.12247 7.147573,3.30418 1.468527,-1.13582 2.937053,-2.27163 4.520327,-3.50498 1.583274,-1.23335 3.281224,-2.56418 4.979209,-3.89503 -2.328992,-1.38822 -4.657983,-2.77643 -6.740327,-4.16466 -2.082344,-1.38823 -3.917968,-2.77642 -5.753628,-4.16464 -1.571783,1.74388 -3.143564,3.48775 -4.468694,5.16855 -1.325129,1.68079 -2.403556,3.29843 -3.482006,4.9161 z"
         id="path76" /><path
         style="opacity:1;fill:#f2c91d;fill-opacity:1;stroke-width:0.264583"
         d="m 91.492118,198.96047 c 2.065116,-2.1569 4.130233,-4.3138 6.17816,-6.247 2.047928,-1.93319 4.078582,-3.64261 6.109282,-5.35207 2.14543,1.74388 4.29086,3.48776 6.52809,5.24312 2.23723,1.75537 4.56618,3.52216 6.89517,5.28898 -2.38636,1.74387 -4.77271,3.48775 -6.82637,5.13412 -2.05366,1.64637 -3.77456,3.19518 -5.49549,4.74402 -2.11101,-1.59473 -4.22202,-3.18946 -6.453515,-4.658 -2.231496,-1.46854 -4.583388,-2.81084 -6.935327,-4.15317 z"
         id="path77" /><path
         style="opacity:1;fill:#f2c91d;fill-opacity:1;stroke-width:0.264583"
         d="m 87.809327,176.00326 c 2.386357,1.37674 4.772715,2.75349 6.952579,4.21629 2.179865,1.46281 4.15316,3.01161 6.126494,4.56045 -2.374885,2.01923 -4.749768,4.03845 -6.889477,6.09212 -2.139709,2.05366 -4.04417,4.14169 -5.948666,6.22975 -1.91597,-1.53737 -3.831938,-3.07473 -5.724981,-4.39412 -1.893044,-1.3194 -3.763083,-2.42077 -5.633161,-3.52216 1.560311,-2.04217 3.120618,-4.08434 4.480165,-5.76513 1.359546,-1.68079 2.518286,-3.00015 3.59101,-4.17613 1.072723,-1.17598 2.05937,-2.20851 3.046037,-3.24107 z"
         id="path78" /><path
         style="opacity:1;fill:#f2c91d;fill-opacity:1;stroke-width:0.264583"
         d="m 66.399123,177.03254 c -0.154138,0.30016 -0.308278,0.60033 -0.413741,0.91672 -0.105463,0.31639 -0.16225,0.649 -0.129796,0.92077 0.03245,0.27178 0.154138,0.4827 0.308278,0.7423 0.15414,0.25961 0.340725,0.56788 0.693626,0.94106 0.3529,0.37318 0.872093,0.81125 1.52516,1.35479 0.653066,0.54355 1.439965,1.19254 2.389144,1.98353 0.94918,0.79098 2.060575,1.7239 3.171994,2.65684 1.776648,-2.27151 3.553296,-4.54302 5.305624,-6.58334 1.752329,-2.04033 3.480263,-3.84938 5.208235,-5.65848 -2.101149,-1.28178 -4.202299,-2.56357 -6.12499,-3.72367 -1.922691,-1.16011 -3.66685,-2.19849 -5.411047,-3.2369 -1.330457,1.8091 -2.660913,3.61819 -3.748005,5.23261 -1.087091,1.61441 -1.930777,3.03407 -2.774482,4.45377 z"
         id="path79" /><path
         style="opacity:1;fill:#f2c91d;fill-opacity:1;stroke-width:0.264583"
         d="m 66.991803,184.3469 c -0.0631,0.066 -0.189302,0.19791 -0.246666,0.37288 -0.05736,0.17496 -0.04589,0.39294 -0.03442,0.6941 0.01147,0.30117 0.02295,0.6855 0.07171,1.12435 0.04876,0.43884 0.134806,0.93216 0.295429,1.6607 0.160623,0.72854 0.395812,1.69224 0.797367,3.02884 0.401556,1.33661 0.969452,3.04603 1.537359,4.75549 0.361395,-0.96946 0.722789,-1.93891 1.296441,-3.18087 0.573652,-1.24195 1.359528,-2.75634 2.14542,-4.27076 -1.25628,-1.00961 -2.512558,-2.01922 -3.479155,-2.72767 -0.966597,-0.70846 -1.643483,-1.11574 -1.981932,-1.31939 -0.33845,-0.20364 -0.338453,-0.20364 -0.401553,-0.13767 z"
         id="path80" /><path
         style="display:inline;opacity:1;fill:#f2c91d;fill-opacity:1;stroke-width:0.264583"
         d="m 72.415602,203.08784 c -0.943643,-1.27062 -1.276356,-1.80411 -1.48,-2.28024 -0.203644,-0.47613 -0.278216,-0.89488 -0.289688,-1.2821 -0.01147,-0.38721 0.04015,-0.74286 0.154885,-1.07844 0.11473,-0.33559 0.292553,-0.65108 0.493331,-0.98667 0.200778,-0.33558 0.424499,-0.69124 1.015362,-1.59187 0.590863,-0.90064 1.548825,-2.34619 2.50681,-3.79177 1.588992,1.2276 3.177982,2.45519 4.996454,3.71722 1.818471,1.26203 3.866337,2.55844 5.914245,3.85487 -0.99814,1.34233 -1.996278,2.68465 -2.868225,3.88932 -0.871947,1.20466 -1.617671,2.27162 -2.328995,3.35581 -0.711323,1.0842 -1.388209,2.18557 -2.065108,3.28697 -0.665426,-0.60233 -1.330851,-1.20465 -2.440867,-2.50971 -1.110017,-1.30506 -2.66456,-3.31277 -3.608204,-4.58339 z"
         id="path81" /></g><g
       id="g138"
       style="fill:#0032a0;fill-opacity:1"><path
         style="opacity:1;fill:#0032a0;fill-opacity:1;stroke-width:0.264583"
         d="m 104.7777,69.649752 c 0,0 2.51256,-4.784188 2.51256,-4.784188 0,0 2.4093,-27.362795 2.4093,-27.362795 0.0115,-0.413023 0.0229,-0.826045 -0.0287,-1.279229 -0.0516,-0.453184 -0.16636,-0.946507 -0.33846,-1.468528 -0.17209,-0.522022 -0.40154,-1.072707 -1.08993,-2.208539 -0.68838,-1.135832 -1.83564,-2.856728 -2.98293,-4.577659 -0.16062,-0.24093 -0.32124,-0.48186 -0.48186,-0.65969 -0.16062,-0.17783 -0.32124,-0.292558 -0.49333,-0.281084 -0.1721,0.01147 -0.35566,0.149145 -0.63675,0.50481 -0.28109,0.355666 -0.65969,0.929298 -1.03829,1.502941 0,0 -3.235351,5.610234 -3.235351,5.610234 -0.16062,0.435969 -0.321239,0.871938 -0.395812,1.296438 -0.07457,0.4245 -0.0631,0.837516 0.0057,1.434113 0.06884,0.596597 0.195038,1.376736 0.32124,2.156891 0.562168,3.281241 1.124333,6.562481 1.606203,10.887807 0.48186,4.325327 0.88341,9.694522 1.28496,15.063825 z"
         id="path92" /><path
         style="opacity:1;fill:#0032a0;fill-opacity:1;stroke-width:0.264583"
         d="m 96.000957,87.340918 c 1.147286,-2.742017 2.294572,-5.484032 3.516446,-8.088399 1.221877,-2.604367 2.518287,-5.070983 3.814717,-7.537649 -1.92744,-2.742017 -3.854884,-5.484033 -5.87413,-8.094136 -2.019247,-2.610103 -4.130213,-5.088195 -5.856893,-7.107435 -1.72668,-2.019241 -3.06898,-3.579521 -4.675201,-5.197212 -1.606221,-1.617691 -3.476262,-3.292697 -4.74402,-4.330994 -1.267757,-1.038298 -1.93317,-1.439841 -2.260147,-1.508676 -0.326977,-0.06883 -0.315504,0.195037 -0.223719,0.734269 0.09178,0.539233 0.263874,1.353791 0.435967,2.168365 0,0 3.682791,11.908838 3.682791,11.908838 0,0 4.267906,12.493955 4.267906,12.493955 0,0 1.514419,5.438143 1.514419,5.438143 0.59659,1.284961 1.193179,2.569921 1.726672,3.579541 0.533494,1.009621 1.003872,1.74387 1.772566,2.621555 0.768693,0.877685 1.835649,1.89875 2.902626,2.919835 z"
         id="path93" /><path
         style="opacity:1;fill:#0032a0;fill-opacity:1;stroke-width:0.264583"
         d="m 99.287933,89.979678 c 0.49907,0.711319 1.634887,1.755351 2.713347,2.902651 1.07846,1.147299 2.09952,2.397816 3.12061,3.648359 0.24093,-0.619535 0.48186,-1.23907 1.05551,-2.093809 0.57365,-0.854739 1.47999,-1.944641 2.67892,-3.195198 1.19893,-1.250557 2.69038,-2.661693 4.18185,-4.072856 0,0 6.67721,-6.023258 6.67721,-6.023258 0.22946,-1.697985 0.45891,-3.39597 1.01536,-5.627471 0.55644,-2.231502 1.43983,-4.996407 2.55271,-8.289159 1.11288,-3.292753 2.45518,-7.113143 3.45907,-10.050217 1.00388,-2.937074 1.66929,-4.990676 2.12821,-6.533788 0.45892,-1.543111 0.71132,-2.575651 0.87194,-3.556589 0.16062,-0.980938 0.22945,-1.910223 0.29829,-2.839525 -1.70946,1.48 -3.41891,2.959998 -5.43243,4.835837 -2.01351,1.875839 -4.33098,4.14742 -6.1896,6.166663 -1.85862,2.019243 -3.25828,3.786029 -4.94481,6.195362 -1.68653,2.409333 -3.65983,5.461056 -5.81101,9.155363 -2.15119,3.694308 -4.48014,8.030967 -5.94293,11.122923 -1.4628,3.091956 -2.059378,4.939053 -2.655967,6.786185 -0.137675,0.378605 -0.27535,0.757209 0.22372,1.468527 z"
         id="path94" /><path
         style="opacity:1;fill:#0032a0;fill-opacity:1;stroke-width:0.264583"
         d="m 88.416567,113.99807 c 1.476483,-0.29205 4.429452,-0.87616 6.984924,-1.25745 2.555472,-0.38129 4.713369,-0.55976 6.993009,-0.65712 2.27965,-0.0974 4.68092,-0.11359 7.31752,0.0405 2.63661,0.15414 5.50839,0.47863 7.48786,0.80314 1.97948,0.3245 3.06654,0.649 3.67498,0.67333 0.60844,0.0243 0.73824,-0.25149 1.20066,-1.14388 0.46243,-0.89239 1.25744,-2.4013 2.19851,-3.73988 0.94106,-1.33858 2.02812,-2.50676 2.89617,-3.41335 0.86805,-0.90658 1.51704,-1.55151 2.31005,-2.19444 0.79301,-0.64292 1.72999,-1.2838 2.98948,-2.06261 1.25949,-0.77882 2.8414,-1.695517 4.34629,-2.494609 1.50489,-0.799093 2.93267,-1.480534 4.41526,-2.155911 1.48258,-0.675377 3.01987,-1.344646 4.07654,-1.831402 1.05666,-0.486756 1.63264,-0.790971 1.88615,-0.983656 0.2535,-0.192686 0.18457,-0.273785 -0.15616,-0.314349 -0.34073,-0.04056 -0.95322,-0.04056 -2.26747,0.03651 -1.31425,0.07707 -3.33018,0.231206 -5.27924,0.53746 -1.94906,0.306254 -3.83113,0.764603 -5.73962,1.33046 -1.9085,0.565856 -3.8433,1.239183 -5.43743,1.979461 -1.59413,0.740278 -2.84749,1.547459 -3.6263,2.01799 -0.77881,0.470531 -1.08302,0.604384 -1.42375,0.683481 -0.34073,0.0791 -0.71796,0.103433 -1.09519,0.12777 -0.0527,-0.146025 -0.10547,-0.29205 -0.0446,-0.51515 0.0609,-0.2231 0.23526,-0.523255 0.59019,-1.048549 0.35493,-0.525295 0.89035,-1.27569 1.74218,-2.545321 0.85183,-1.269631 2.02001,-3.058413 3.18822,-4.847229 1.41158,-2.12143 2.82316,-4.242857 3.95082,-5.768026 1.12765,-1.525168 1.97133,-2.454034 3.0422,-3.599946 1.07087,-1.145912 2.36885,-2.508791 3.51273,-3.658754 1.14388,-1.149963 2.13359,-2.086943 3.15173,-2.989472 1.01813,-0.902529 2.06463,-1.770554 3.11115,-2.638596 0,0 -5.06223,1.691466 -5.06223,1.691466 -2.10521,0.904549 -4.21041,1.809096 -7.17761,3.549264 -2.96721,1.740168 -6.79625,4.315847 -10.16704,6.824675 -3.37079,2.508829 -6.28314,4.950658 -8.291,6.690808 -2.00787,1.740151 -3.11115,2.778533 -4.14551,3.89402 -1.03436,1.115488 -1.99973,2.308005 -2.53922,3.070589 -0.53949,0.762584 -0.65306,1.095194 -0.75853,1.346694 -0.10547,0.251499 -0.20281,0.421842 -0.30827,0.507024 -0.10546,0.08518 -0.21904,0.08518 -0.36507,0.0081 -0.14602,-0.07707 -0.32449,-0.231207 -0.57599,-0.4827 -0.25149,-0.251493 -0.57598,-0.600323 -1.21283,-1.358857 -0.63684,-0.758535 -1.58599,-1.926719 -2.79883,-3.159839 -1.21284,-1.23312 -2.689296,-2.531103 -4.628217,-4.088729 -1.938922,-1.557626 -4.340189,-3.3748 -7.009245,-5.228535 -2.669056,-1.853735 -5.605739,-3.74392 -8.599298,-5.532754 -2.99356,-1.788833 -6.043814,-3.476208 -9.146894,-4.972985 -3.103079,-1.496778 -6.258797,-2.802872 -9.414577,-4.108992 0.900493,0.82748 1.800986,1.65496 3.167968,2.839407 1.366982,1.184446 3.200381,2.725799 5.147412,4.636326 1.947031,1.910526 4.007575,4.190106 6.814551,7.702886 2.806976,3.512779 6.360199,8.258522 8.18958,10.757188 1.82938,2.498666 1.934841,2.750151 1.910502,2.879952 -0.02434,0.129801 -0.178475,0.137915 -0.644953,-0.01217 -0.466479,-0.150084 -1.24527,-0.458356 -2.685268,-1.05058 -1.439997,-0.592224 -3.541103,-1.468361 -5.269089,-2.170102 -1.727986,-0.70174 -3.082753,-1.229045 -4.733675,-1.744197 -1.650922,-0.515151 -3.597895,-1.01812 -5.33805,-1.350736 -1.740156,-0.332615 -3.273398,-0.494863 -4.453781,-0.5841 -1.180383,-0.08924 -2.007846,-0.10546 -2.417529,-0.05678 -0.409683,0.04868 -0.401569,0.16225 -0.073,0.344785 0.328565,0.182535 0.977556,0.434018 2.352653,1.022186 1.375096,0.588168 3.476205,1.512981 5.670672,2.604131 2.194467,1.091149 4.482158,2.348567 6.433242,3.614143 1.951084,1.26557 3.565445,2.53921 4.831011,3.73988 1.265567,1.20067 2.182266,2.32829 2.961077,3.5898 0.77881,1.26152 1.419688,2.65685 1.809091,3.67498 0.389403,1.01813 0.527315,1.65901 0.661172,2.06869 0.133858,0.40969 0.263655,0.58816 0.328555,0.6774 0.0649,0.0892 0.0649,0.0893 1.541381,-0.20279 z"
         id="path95" /></g><g
       id="g137"
       style="fill:#0032a0;fill-opacity:1"><path
         style="opacity:1;fill:#0032a0;fill-opacity:1;stroke-width:0.264583"
         d="m -9.2511555,100.04139 c 0.9063567,-2.443723 1.8127141,-4.887448 2.8624931,-7.182043 1.049779,-2.294595 2.242934,-4.43998 3.4361125,-6.585407 0,0 75.7553619,40.51071 75.7553619,40.51071 0,0 -2.822326,3.54511 -2.822326,3.54511 z"
         id="path82" /><path
         style="opacity:1;fill:#0032a0;fill-opacity:1;stroke-width:0.264583"
         d="m 1.1742651,79.24393 c 1.4764835,-2.255287 2.9529671,-4.510575 4.3970145,-6.530616 1.4440473,-2.020042 2.8556018,-3.804766 4.2671847,-5.589526 0,0 67.7559697,54.905702 67.7559697,54.905702 0,0 -2.920515,2.72581 -2.920515,2.72581 z"
         id="path83" /><path
         style="opacity:1;fill:#0032a0;fill-opacity:1;stroke-width:0.264583"
         d="m 60.584206,91.643244 c -0.206512,0.114729 -0.413023,0.229457 -0.539226,0.395816 -0.126202,0.16636 -0.172092,0.384339 -0.195037,0.596589 -0.02295,0.21225 -0.02295,0.418758 0.04589,0.682637 0.06884,0.26388 0.206509,0.585113 0.441706,0.831781 0.235196,0.246669 0.567905,0.418759 0.975196,0.6138 0.407292,0.19504 0.889144,0.413021 1.43411,0.64248 0.544967,0.22946 1.153016,0.470385 1.761078,0.711316 0,0 18.82698,22.303257 18.82698,22.303257 -0.894883,0.45892 -1.789765,0.91783 -2.374884,1.25055 -0.585119,0.33271 -0.860465,0.53922 -1.135814,0.74573 0,0 -64.603733,-59.61303 -64.603733,-59.61303 1.675039,-1.83566 3.35008,-3.67132 5.139866,-5.38653 1.789786,-1.71521 3.694245,-3.309908 5.598741,-4.904637 z"
         id="path84" /><path
         style="display:inline;opacity:1;fill:#0032a0;fill-opacity:1;stroke-width:0.264583"
         d="m 72.802812,100.35115 c 0,0 12.769305,16.93396 12.769305,16.93396 0.298295,-0.35566 0.59659,-0.71132 0.952251,-0.99241 0.355662,-0.28108 0.76868,-0.48759 1.181703,-0.6941 -0.286821,-0.0574 -0.573642,-0.11473 -0.837522,-0.14342 -0.26388,-0.0287 -0.504804,-0.0287 -0.74,-0.14341 -0.235195,-0.11473 -0.464647,-0.34418 -0.613795,-0.59659 -0.149148,-0.2524 -0.217986,-0.52775 -0.298296,-0.8662 -0.08031,-0.33845 -0.172093,-0.74 -0.395817,-1.34233 -0.223723,-0.60233 -0.579378,-1.40542 -1.003878,-2.20279 -0.424501,-0.79737 -0.917828,-1.58899 -1.485741,-2.36341 -0.567913,-0.77443 -1.210379,-1.53162 -1.915968,-2.25442 -0.70559,-0.7228 -1.474252,-1.41115 -2.334728,-2.07659 -0.860477,-0.66543 -1.812707,-1.3079 -2.7076,-1.84713 -0.894893,-0.53923 -1.732394,-0.97519 -2.569914,-1.41116 z"
         id="path85" /><path
         style="display:inline;opacity:1;fill:#0032a0;fill-opacity:1;stroke-width:0.264583"
         d="m 66.496473,91.558773 c 1.800985,0.113575 3.601969,0.22715 5.297508,0.632784 1.695538,0.405634 3.285565,1.103299 4.875624,1.800978 0,0 -8.907574,-16.160189 -8.907574,-16.160189 -0.973505,-0.827479 -1.94701,-1.654958 -2.961089,-2.506784 -1.014079,-0.851827 -2.068688,-1.727964 -2.774483,-2.376972 -0.705795,-0.649008 -1.06274,-1.070851 -1.224991,-1.476483 -0.16225,-0.405631 -0.129801,-0.795023 -0.08113,-1.103302 0.04868,-0.308279 0.113575,-0.535427 0.259603,-0.697678 0.146027,-0.162251 0.373173,-0.2596 0.762582,-0.235262 0.389408,0.02434 0.941049,0.170361 1.492702,0.316386 0,0 -18.301898,-32.515076 -18.301898,-32.515076 -2.239063,1.216882 -4.478126,2.433763 -6.579295,3.804799 -2.101169,1.371035 -4.064365,2.896163 -6.027601,4.421321 z"
         id="path86" /><path
         style="display:inline;opacity:1;fill:#0032a0;fill-opacity:1;stroke-width:0.264583"
         d="m 123.77677,117.0786 c -0.73426,-0.30977 -1.46852,-0.61953 -2.07085,-0.82604 -0.60233,-0.20652 -1.07271,-0.30977 -1.5431,-0.41303 0.16062,-0.20651 0.32124,-0.41303 0.60806,-0.5507 0.28682,-0.13768 0.69985,-0.20651 1.07845,-0.37287 0.37861,-0.16636 0.72279,-0.43023 1.11287,-0.96947 0.39009,-0.53923 0.82605,-1.35378 1.38823,-2.33472 0.56217,-0.98095 1.25053,-2.12821 2.17411,-3.26978 0.92358,-1.14156 2.08231,-2.27735 3.58528,-3.4648 1.50296,-1.18746 3.35006,-2.4265 5.19719,-3.66557 z"
         id="path87" /><path
         style="opacity:1;fill:#0032a0;fill-opacity:1;stroke-width:0.264583"
         d="m 132.45146,93.846508 c 2.06059,-0.746353 4.12117,-1.492706 5.72747,-1.817207 1.60629,-0.324501 2.75825,-0.227153 3.91023,-0.129803 0,0 34.26739,-46.874281 34.26739,-46.874281 -2.01191,-1.492708 -4.02382,-2.985416 -6.09254,-4.291547 -2.06872,-1.306131 -4.19416,-2.42564 -6.31965,-3.545171 0,0 -18.69131,33.683284 -18.69131,33.683284 0.21093,0.210927 0.42186,0.421857 0.52732,0.730136 0.10546,0.308279 0.10546,0.713899 -0.0162,1.070853 -0.12169,0.356954 -0.36506,0.665224 -1.03842,1.298013 -0.67335,0.63279 -1.77663,1.59005 -2.87994,2.54733 z"
         id="path88" /><path
         style="opacity:1;fill:#0032a0;fill-opacity:1;stroke-width:0.264583"
         d="m 126.075,118.13547 c 0.68145,0.2596 1.36291,0.5192 1.96324,0.82748 0.60033,0.30828 1.11953,0.66523 1.63873,1.02218 0,0 63.9593,-59.529853 63.9593,-59.529853 -1.70364,-1.833435 -3.40727,-3.666869 -5.17583,-5.37052 -1.76855,-1.70365 -3.60195,-3.277453 -5.43538,-4.851286 0,0 -34.90017,41.520001 -34.90017,41.520001 0.22715,0.194701 0.45431,0.389404 0.62467,0.649008 0.17037,0.259603 0.28394,0.584099 0.22715,1.022182 -0.0568,0.438082 -0.28394,0.989724 -1.22501,1.614397 -0.94107,0.624673 -2.596,1.322339 -4.25096,2.020018 z"
         id="path89" /><path
         style="opacity:1;fill:#0032a0;fill-opacity:1;stroke-width:0.264583"
         d="m 131.72133,121.64009 c 0.63278,0.40563 1.26556,0.81125 1.79288,1.26556 0.52732,0.45431 0.94916,0.95727 1.37101,1.46025 0,0 72.86687,-45.6574 72.86687,-45.6574 -1.37913,-2.141711 -2.75826,-4.283421 -4.19419,-6.254788 -1.43594,-1.971367 -2.92862,-3.772316 -4.42133,-5.573301 z"
         id="path90" /><path
         style="opacity:1;fill:#0032a0;fill-opacity:1;stroke-width:0.264583"
         d="m 136.89027,126.45767 c 0.52201,0.56791 1.04403,1.13581 1.46566,1.72381 0.42163,0.58799 0.74286,1.19604 1.0641,1.8041 0,0 78.81862,-30.460473 78.81862,-30.460473 -0.9293,-2.380621 -1.85861,-4.761241 -2.90838,-7.024286 -1.04978,-2.263046 -2.21999,-4.408431 -3.39022,-6.553858 z"
         id="path91" /></g></g><text
     xml:space="preserve"
     transform="matrix(4.9632583,0,0,4.9632583,-4764.0619,-302.02419)"
     id="text2"
     style="font-style:normal;font-variant:normal;font-weight:normal;font-stretch:normal;font-size:24.8773px;font-family:sans-serif;-inkscape-font-specification:'sans-serif, Normal';font-variant-ligatures:normal;font-variant-caps:normal;font-variant-numeric:normal;font-variant-east-asian:normal;writing-mode:lr-tb;direction:ltr;white-space:pre;shape-inside:url(#rect3);display:inline;opacity:1;fill:#000000;fill-opacity:1;stroke:#000000;stroke-width:1.06617;stroke-linecap:round;stroke-linejoin:round;stroke-dasharray:none;stroke-opacity:1;paint-order:stroke fill markers"><tspan
       x="1025.2715"
       y="84.586752"
       id="tspan3">Better</tspan></text><text
     xml:space="preserve"
     transform="matrix(4.9632583,0,0,4.9632583,-4764.0619,-193.92761)"
     id="text3"
     style="font-style:normal;font-variant:normal;font-weight:normal;font-stretch:normal;font-size:24.8773px;font-family:sans-serif;-inkscape-font-specification:'sans-serif, Normal';font-variant-ligatures:normal;font-variant-caps:normal;font-variant-numeric:normal;font-variant-east-asian:normal;writing-mode:lr-tb;direction:ltr;white-space:pre;shape-inside:url(#rect4);display:inline;opacity:1;fill:#000000;fill-opacity:1;stroke:#000000;stroke-width:1.06617;stroke-linecap:round;stroke-linejoin:round;stroke-dasharray:none;stroke-opacity:1;paint-order:stroke fill markers"
     inkscape:label="text3"><tspan
       x="1025.2715"
       y="84.586752"
       id="tspan4">Calauan</tspan></text></svg>
